# xmcd
#
# Track frame offsets: 
#        150
#        12149
#        23972
#        35988
#        49389
#        61577
#        72730
#        84619
#        96601
#        108846
#        120363
#        133820
#        146265
#        158326
#        171828
#        185498
#        197135
#        209742
#        222514
#        235711
#        247894
#        260579
#        273342
#        285829
#        297733
#
# Disc length: 4127 seconds
#
# Revision: 2
# Processed by: cddbd v1.5.2PL0 Copyright (c) Steve Scherf et al.
# Submitted via: ExactAudioCopy v0.99pb5
#
DISCID=7e101d19
DTITLE=Lightnin' Hopkins - Dirty House Blues CD 2
DYEAR=2010
DGENRE=Country Blues
TTITLE0=Tim Moore's Farm
TTITLE1='T' Model Blues
TTITLE2=Shotgun Blues
TTITLE3=Give Me Central 209
TTITLE4=Lonesome Dog Blues
TTITLE5=Mad With You
TTITLE6=Airplane Blues
TTITLE7=Death Bells
TTITLE8=Lonesome In Your Home
TTITLE9=Penitentiary Blues
TTITLE10=Short Haired Woman
TTITLE11=Gone Again
TTITLE12=Gotta Move
TTITLE13=Katie Mae Blues
TTITLE14=Long Way From Texas
TTITLE15=Buck Dance Boogie
TTITLE16=Fast Mail Rambler
TTITLE17=No Good Woman
TTITLE18=Praying Ground Blues
TTITLE19=Sugar On My Mind
TTITLE20=Picture On The Wall
TTITLE21=Santa Fe Blues
TTITLE22=Crazy 'Bout My Baby
TTITLE23=European Blues
TTITLE24=Gone With The Wind
EXTD=
EXTT0=
EXTT1=
EXTT2=
EXTT3=
EXTT4=
EXTT5=
EXTT6=
EXTT7=
EXTT8=
EXTT9=
EXTT10=
EXTT11=
EXTT12=
EXTT13=
EXTT14=
EXTT15=
EXTT16=
EXTT17=
EXTT18=
EXTT19=
EXTT20=
EXTT21=
EXTT22=
EXTT23=
EXTT24=
PLAYORDER=
